<svg width="43" height="43" viewBox="0 0 43 43" fill="none" xmlns="http://www.w3.org/2000/svg">
<path d="M21.5 43C33.3741 43 43 33.3741 43 21.5C43 9.62588 33.3741 0 21.5 0C9.62588 0 0 9.62588 0 21.5C0 33.3741 9.62588 43 21.5 43Z" fill="#1A1A1A"/>
<path d="M21.5 0.25C33.2361 0.25 42.75 9.76395 42.75 21.5C42.75 33.2361 33.2361 42.75 21.5 42.75C9.76395 42.75 0.25 33.2361 0.25 21.5C0.25 9.76395 9.76395 0.25 21.5 0.25Z" stroke="white" stroke-opacity="0.3" stroke-width="0.5"/>
<path d="M19.7206 29L19.7 22.4375H17V19.625H19.7V17.75C19.7 15.2195 21.2044 14 23.3714 14C24.4095 14 25.3017 14.0805 25.5616 14.1165V16.761L24.0587 16.7617C22.8801 16.7617 22.6519 17.3451 22.6519 18.2012V19.625H26L25.1 22.4375H22.6519V29H19.7206Z" fill="#E7589A"/>
</svg>
