<svg width="43" height="43" viewBox="0 0 43 43" fill="none" xmlns="http://www.w3.org/2000/svg">
<path d="M21.5 43C33.3741 43 43 33.3741 43 21.5C43 9.62588 33.3741 0 21.5 0C9.62588 0 0 9.62588 0 21.5C0 33.3741 9.62588 43 21.5 43Z" fill="#1A1A1A"/>
<path d="M21.5 0.25C33.2361 0.25 42.75 9.76395 42.75 21.5C42.75 33.2361 33.2361 42.75 21.5 42.75C9.76395 42.75 0.25 33.2361 0.25 21.5C0.25 9.76395 9.76395 0.25 21.5 0.25Z" stroke="white" stroke-opacity="0.3" stroke-width="0.5"/>
<path d="M25.3858 18.549C25.8829 18.549 26.2858 18.1461 26.2858 17.649C26.2858 17.152 25.8829 16.749 25.3858 16.749C24.8888 16.749 24.4858 17.152 24.4858 17.649C24.4858 18.1461 24.8888 18.549 25.3858 18.549Z" fill="#E7589A"/>
<path d="M21.5 17.7495C23.5681 17.7495 25.25 19.4314 25.25 21.4995C25.25 23.5676 23.5681 25.2495 21.5 25.2495C19.4319 25.2495 17.75 23.5676 17.75 21.4995C17.75 19.4314 19.4319 17.7495 21.5 17.7495ZM21.5 19.6255C20.4659 19.6255 19.625 20.4665 19.625 21.5005C19.625 22.5345 20.4659 23.3755 21.5 23.3755C22.534 23.3755 23.375 22.5345 23.375 21.5005C23.375 20.4665 22.534 19.6255 21.5 19.6255Z" fill="#E7589A"/>
<path d="M25.25 14C27.1775 14 29 15.8225 29 17.75V25.25C29 27.1774 27.1774 29 25.25 29H17.75C15.8225 29 14 27.1775 14 25.25V17.75C14 15.8225 15.8225 14 17.75 14H25.25ZM17.75 15.876C16.8734 15.876 15.875 16.8744 15.875 17.751V25.25C15.875 26.1434 16.8566 27.125 17.75 27.125H25.25C26.1265 27.1249 27.125 26.1265 27.125 25.25V17.751C27.125 16.8745 26.1265 15.8761 25.25 15.876H17.75Z" fill="#E7589A"/>
</svg>
