<svg width="43" height="43" viewBox="0 0 43 43" fill="none" xmlns="http://www.w3.org/2000/svg">
<path d="M21.5 43C33.3741 43 43 33.3741 43 21.5C43 9.62588 33.3741 0 21.5 0C9.62588 0 0 9.62588 0 21.5C0 33.3741 9.62588 43 21.5 43Z" fill="#1A1A1A"/>
<path d="M21.5 0.25C33.2361 0.25 42.75 9.76395 42.75 21.5C42.75 33.2361 33.2361 42.75 21.5 42.75C9.76395 42.75 0.25 33.2361 0.25 21.5C0.25 9.76395 9.76395 0.25 21.5 0.25Z" stroke="white" stroke-opacity="0.3" stroke-width="0.5"/>
<path d="M15.875 17.7499C16.9105 17.7499 17.75 16.9105 17.75 15.875C17.75 14.8394 16.9105 14 15.875 14C14.8395 14 14 14.8394 14 15.875C14 16.9105 14.8395 17.7499 15.875 17.7499Z" fill="#E7589A"/>
<path d="M17.4375 19H14.3125C14.14 19 14 19.14 14 19.3125V28.6872C14 28.8597 14.14 28.9997 14.3125 28.9997H17.4375C17.61 28.9997 17.75 28.8597 17.75 28.6872V19.3125C17.75 19.14 17.61 19 17.4375 19Z" fill="#E7589A"/>
<path d="M26.7481 18.5689C25.4125 18.1114 23.7418 18.5133 22.74 19.2339C22.7056 19.0995 22.5831 18.9995 22.4375 18.9995H19.3125C19.14 18.9995 19 19.1395 19 19.312V28.6868C19 28.8593 19.14 28.9993 19.3125 28.9993H22.4375C22.61 28.9993 22.75 28.8593 22.75 28.6868V21.9495C23.255 21.5145 23.9056 21.3757 24.4381 21.602C24.9543 21.8201 25.25 22.3526 25.25 23.0619V28.6868C25.25 28.8593 25.39 28.9993 25.5625 28.9993H28.6875C28.86 28.9993 29 28.8593 29 28.6868V22.4326C28.9644 19.8645 27.7562 18.9139 26.7481 18.5689Z" fill="#E7589A"/>
</svg>
